<svg version="1.0" xmlns="http://www.w3.org/2000/svg"
 width="668px" style="transform:scale(1,1.001);" height="375.75px" viewBox="0 0 320.000000 180.000000"
 preserveAspectRatio="xMidYMid meet">
<g transform="translate(0.000000,180.000000) scale(0.100000,-0.100000)"
fill="#000000" stroke="none">
<path d="M0 905 l0 -895 515 0 c484 0 515 1 515 18 0 9 11 53 25 97 33 106 31 151 -10
356 -58 289 -48 425 37 473 82 47 118 105 118 193 0 124 72 243 146 243 19 0
34 -4 34 -9 0 -5 15 -18 33 -29 26 -15 38 -33 55 -84 12 -35 22 -76 22 -90 0
-19 9 -29 38 -42 61 -27 91 -98 60 -138 -7 -9 -40 -30 -73 -47 -42 -22 -66
-43 -82 -69 l-21 -38 28 -42 c55 -82 80 -225 78 -442 -1 -74 2 -183 6 -242 l8
-108 834 0 834 0 0 895 0 895 -1600 0 -1600 0 0 -895z"/>
</g>
</svg>
